# AST/ASF file generated using VICON BodyLanguage
# -----------------------------------------------
:version 1.10
:name VICON
:units
  mass 1.0
  length 0.45
  angle deg
:documentation
   .ast/.asf automatically generated from VICON data using
   VICON BodyBuilder and BodyLanguage model FoxedUp or BRILLIANT.MOD
:root
   order TX TY TZ RX RY RZ
   axis XYZ
   position 0 0 0  
   orientation 0 0 0 
:bonedata
  begin
     id 1 
     name lhipjoint
     direction 0.710188 -0.616876 0.339259 
     length 2.5669 
     axis 0 0 0  XYZ
  end
  begin
     id 2 
     name lfemur
     direction 0.34202 -0.939693 0  
     length 7.12796  
     axis 0 0 20  XYZ
    dof rx ry rz
    limits (-160.0 20.0)
           (-70.0 70.0)
           (-60.0 70.0)
  end
  begin
     id 3 
     name ltibia
     direction 0.34202 -0.939693 0   
     length 7.58108   
     axis 0 0 20   XYZ
    dof rx
    limits (-10.0 170.0)
  end
  begin
     id 4 
     name lfoot
     direction 0.0669471 -0.183936 0.980656   
     length 2.17365   
     axis -90 7.62852e-016 20   XYZ
    dof rx rz
    limits (-45.0 90.0)
           (-70.0 20.0)
  end
  begin
     id 5 
     name ltoes
     direction 1.53508e-011 -4.21705e-011 1   
     length 1.09427   
     axis -90 7.62852e-016 20   XYZ
    dof rx
    limits (-90.0 20.0)
  end
  begin
     id 6 
     name rhipjoint
     direction -0.700191 -0.625589 0.34405   
     length 2.53115  
     axis 0 0 0  XYZ 
  end
  begin
     id 7 
     name rfemur
     direction -0.34202 -0.939693 0   
     length 7.33006   
     axis 0 0 -20   XYZ
    dof rx ry rz
    limits (-160.0 20.0)
           (-70.0 70.0)
           (-70.0 60.0)
  end
  begin
     id 8 
     name rtibia
     direction -0.34202 -0.939693 0   
     length 7.64926   
     axis 0 0 -20   XYZ
    dof rx
    limits (-10.0 170.0)
 end
 begin
     id 9 
     name rfoot
     direction -0.0688927 -0.189281 0.979503   
     length 2.20493  
     axis -90 -7.62852e-016 -20   XYZ
    dof rx rz
    limits (-45.0 90.0)
           (-20.0 70.0)
  end
  begin
     id 10 
     name rtoes
     direction -1.53567e-011 -4.21933e-011 1   
     length 1.10919   
     axis -90 -7.62852e-016 -20   XYZ
    dof rx
    limits (-90.0 20.0)
  end
  begin
     id 11 
     name lowerback
     direction -0.0167868 0.989873 -0.140959   
     length 2.14596   
     axis 0 0 0   XYZ
    dof rx ry rz
    limits (-20.0 45.0)
           (-30.0 30.0)
           (-30.0 30.0)
  end
  begin
     id 12 
     name upperback
     direction 0.0129109 0.998033 0.0613525   
     length 2.10457   
     axis 0 0 0   XYZ
    dof rx ry rz
    limits (-20.0 45.0)
           (-30.0 30.0)
           (-30.0 30.0)
  end
  begin
     id 13 
     name thorax
     direction 0.0177047 0.991119 0.131797   
     length 2.17652   
     axis 0 0 0   XYZ
    dof rx ry rz
    limits (-20.0 45.0)
           (-30.0 30.0)
           (-30.0 30.0)
  end
  begin
     id 14 
     name lowerneck
     direction -0.0336893 0.997548 0.0613464   
     length 1.8912   
     axis 0 0 0   XYZ
    dof rx ry rz
    limits (-20.0 45.0)
           (-30.0 30.0)
           (-30.0 30.0)
  end
  begin
     id 15 
     name upperneck
     direction 0.0435909 0.997179 -0.0611028   
     length 1.8829   
     axis 0 0 0   XYZ
    dof rx ry rz
    limits (-20.0 45.0)
           (-30.0 30.0)
           (-30.0 30.0)
  end
  begin
     id 16
     name head
     direction 0.0175076 0.999444 -0.0283782  
     length 1.93197  
     axis 0 0 0   XYZ
    dof rx ry rz
    limits (-20.0 45.0)
           (-30.0 30.0)
           (-30.0 30.0)
  end
  begin
     id 17 
     name lclavicle
     direction 0.919164 0.389875 0.0559876  
     length 3.60004  
     axis 0 0 0   XYZ
    dof ry rz
    limits (-20.0 10.0)
           (0.0 20.0)
  end
  begin
     id 18 
     name lhumerus
     direction 1 -4.48958e-011 6.89191e-027   
     length 5.43301   
     axis 180 -30 -90   XYZ
    dof rx ry rz
    limits (-60.0 90.0)
           (-90.0 90.0)
           (-90.0 90.0)
  end
  begin
     id 19
     name lradius
     direction 1 -4.4897e-011 3.24727e-027   
     length 3.15936   
     axis 180 -30 -90   XYZ
    dof rx
    limits (-10.0 170.0)
  end
  begin
     id 20
     name lwrist
     direction 1 -4.4897e-011 9.00228e-027   
     length 1.57968   
     axis -6.29373e-015 90 90   XYZ
    dof ry
    limits (-180.0 0.0)
 end
  begin
     id 21 
     name lhand
     direction 1 -4.48968e-011 1.80042e-026   
     length 0.712827   
     axis -1.14882e-014 90 90   XYZ
    dof rx rz
    limits (-90.0 90.0)
           (-45.0 45.0)
  end
  begin
     id 22 
     name lfingers
     direction 1 -4.49019e-011 3.60267e-026   
     length 0.574699   
     axis -2.29769e-014 90 90   XYZ
    dof rx
    limits (0.0 90.0)
  end
  begin
     id 23
     name lthumb
     direction 0.707107 -6.3498e-011 0.707107   
     length 0.825157   
     axis -90 45 5.37419e-014   XYZ
    dof rx rz
    limits (-45.0 45.0)
           (-45.0 45.0)
  end
  begin
     id 24 
     name rclavicle
     direction -0.890334 0.455305 -0.00132111   
     length 3.51494  
     axis 0 0 0   XYZ 
    dof ry rz
    limits (-10.0 20.0)
           (-20.0 0.0)
  end
  begin
     id 25 
     name rhumerus
     direction -1 -4.48967e-011 5.07175e-028  
     length 5.34194   
     axis 180 30 90   XYZ
    dof rx ry rz
    limits (-90.0 60.0)
           (-90.0 90.0)
           (-90.0 90.0)
  end
  begin
     id 26 
     name rradius
     direction -1 -4.48955e-011 3.30467e-027   
     length 3.19351   
     axis 180 30 90   XYZ
    dof rx
    limits (-10.0 170.0)
  end
  begin
     id 27 
     name rwrist
     direction -1 -4.48968e-011 9.00208e-027   
     length 1.59676   
     axis -6.29373e-015 -90 -90   XYZ
    dof ry
    limits (-180.0 0.0)
  end
  begin
     id 28
     name rhand
     direction -1 -4.49e-011 1.80099e-026   
     length 0.743862   
     axis -1.14882e-014 -90 -90   XYZ
    dof rx rz
    limits (-90.0 90.0)
           (-45.0 45.0)
  end
  begin
     id 29
     name rfingers
     direction -1 -4.49009e-011 3.6023e-026   
     length 0.599721   
     axis -2.29769e-014 -90 -90   XYZ
    dof rx
    limits (0.0 90.0)
  end
  begin
     id 30
     name rthumb
     direction -0.707107 -6.35025e-011 0.707107   
     length 0.861083   
     axis -90 -45 -5.37419e-014   XYZ
    dof rx rz
    limits (-45.0 45.0)
           (-45.0 45.0)
  end
:hierarchy
  begin
    root lhipjoint rhipjoint lowerback
    lhipjoint lfemur
    lfemur ltibia
    ltibia lfoot
    lfoot ltoes
    rhipjoint rfemur
    rfemur rtibia
    rtibia rfoot
    rfoot rtoes
    lowerback upperback
    upperback thorax
    thorax lowerneck lclavicle rclavicle
    lowerneck upperneck
    upperneck head
    lclavicle lhumerus
    lhumerus lradius
    lradius lwrist
    lwrist lhand lthumb
    lhand lfingers
    rclavicle rhumerus
    rhumerus rradius
    rradius rwrist
    rwrist rhand rthumb
    rhand rfingers
  end

#!OML:ASF H:\Martial Arts Walks\Project 1\Capture day 1\Session 1\male.ASF
:FULLY-SPECIFIED
:DEGREES
172
root -1.19221 14.2988 -28.7043 -6.10343 -19.3686 8.88687
lowerback 22.064 4.59129 -12.7803
upperback 2.37889 2.55336 -2.70947
thorax -10.1626 1.63271 3.44527
lowerneck -2.93667 -1.40425 -4.18785
upperneck 5.37562 -1.91986 4.48225
head 2.31959 -0.923982 2.11891
rclavicle -1.69961e-014 2.66371e-014
rhumerus -18.353 34.2815 -86.8908
rradius 66.8222
rwrist 4.57394
rhand -0.909343 -40.0448
rfingers 7.12502
rthumb 24.7191 -68.4678
lclavicle -1.69961e-014 2.66371e-014
lhumerus -23.9841 -6.3041 76.3934
lradius 35.5131
lwrist -12.3495
lhand -23.8405 24.3587
lfingers 7.12502
lthumb 2.63137 54.3223
rfemur -55.5711 -2.88338 19.3328
rtibia 97.9321
rfoot -15.5695 -9.64201
rtoes -18.3021
lfemur -23.6304 19.4251 -29.7799
ltibia 73.0494
lfoot -36.6737 29.5016
ltoes -0.518923
173
root -1.23492 14.2904 -28.4739 -7.07788 -18.2942 9.54227
lowerback 22.2484 4.50383 -13.2563
upperback 2.5572 2.29245 -2.84399
thorax -10.0283 1.51245 3.64198
lowerneck -2.94303 -1.49753 -4.27101
upperneck 5.7785 -2.05407 4.52071
head 2.46357 -0.991371 2.14594
rclavicle 5.58585e-014 -2.54444e-014
rhumerus -19.2325 33.4646 -86.9703
rradius 67.3445
rwrist 5.08057
rhand -0.584312 -40.0541
rfingers 7.12502
rthumb 25.0306 -68.434
lclavicle 5.58585e-014 -2.54444e-014
lhumerus -23.9493 -6.61672 76.3316
lradius 35.3066
lwrist -12.0438
lhand -23.6049 24.4135
lfingers 7.12502
lthumb 2.8589 54.374
rfemur -57.2198 -2.41416 19.4115
rtibia 94.3002
rfoot -16.1633 -7.34546
rtoes -19.7083
lfemur -21.0955 19.4153 -29.9621
ltibia 72.1477
lfoot -37.2446 29.3455
ltoes -1.2352
174
root -1.2832 14.2806 -28.2415 -7.96506 -16.8602 9.97161
lowerback 22.5311 4.33274 -13.5458
upperback 2.7115 1.9581 -2.90942
thorax -9.95436 1.35634 3.83262
lowerneck -2.87325 -1.64851 -4.28039
upperneck 6.14574 -2.26538 4.46561
head 2.58285 -1.09896 2.12528
rclavicle -3.86636e-014 5.1684e-015
rhumerus -20.3295 32.3312 -87.001
rradius 67.9606
rwrist 5.52414
rhand -0.706419 -39.9495
rfingers 7.12502
rthumb 24.9136 -68.3457
lclavicle -3.86636e-014 5.1684e-015
lhumerus -23.817 -6.88878 76.365
lradius 34.955
lwrist -11.714
lhand -23.7926 24.2122
lfingers 7.12502
lthumb 2.67765 54.1751
rfemur -58.4639 -2.24627 19.2643
rtibia 90.2001
rfoot -16.6159 -4.45944
rtoes -20.1008
lfemur -18.5964 19.1379 -29.9006
ltibia 71.2596
lfoot -37.7144 29.205
ltoes -1.87795
175
root -1.33816 14.2713 -28.0106 -8.75652 -14.9473 10.3636
lowerback 22.8791 4.0401 -13.9047
upperback 2.83962 1.4414 -2.91826
thorax -9.91285 1.12241 4.18303
lowerneck -2.72693 -1.79451 -4.40236
upperneck 6.41611 -2.46671 4.45133
head 2.65875 -1.20406 2.1383
rclavicle 1.95803e-014 -1.11319e-014
rhumerus -21.5337 31.0121 -86.9084
rradius 68.6422
rwrist 5.89377
rhand -0.537077 -40.0515
rfingers 7.12502
rthumb 25.0758 -68.4251
lclavicle 1.95803e-014 -1.11319e-014
lhumerus -23.7321 -6.97819 76.4951
lradius 34.603
lwrist -11.5072
lhand -25.0533 23.1448
lfingers 7.12502
lthumb 1.46004 53.1195
rfemur -59.3384 -2.54918 18.6615
rtibia 85.6806
rfoot -16.22 -0.877054
rtoes -18.5602
lfemur -16.2092 18.4971 -29.8684
ltibia 70.3791
lfoot -37.9457 29.1796
ltoes -2.86831
176
root -1.40031 14.2722 -27.7734 -9.51689 -12.7787 10.5559
lowerback 23.1665 3.69288 -14.1651
upperback 3.05578 0.907413 -2.85034
thorax -9.72537 0.866561 4.57735
lowerneck -2.66996 -1.99094 -4.52013
upperneck 6.64904 -2.72954 4.4091
head 2.7416 -1.33958 2.13849
rclavicle -3.03147e-015 -5.96354e-014
rhumerus -22.7382 29.4247 -86.6371
rradius 69.4127
rwrist 6.16287
rhand -0.56856 -40.2728
rfingers 7.12502
rthumb 25.0457 -68.6507
lclavicle -3.03147e-015 -5.96354e-014
lhumerus -23.3193 -6.98106 76.6984
lradius 34.0169
lwrist -11.3502
lhand -24.8896 23.3945
lfingers 7.12502
lthumb 1.61814 53.3681
rfemur -59.6398 -2.99871 17.7897
rtibia 80.7793
rfoot -13.9875 2.73934
rtoes -16.5085
lfemur -13.6928 17.6843 -29.5901
ltibia 69.4724
lfoot -38.3789 28.8275
ltoes -3.34719
177
root -1.47228 14.2751 -27.5303 -10.0313 -10.42 10.404
lowerback 23.2396 3.29124 -14.2558
upperback 3.27628 0.399469 -2.67521
thorax -9.41538 0.610864 4.99318
lowerneck -2.66736 -2.21583 -4.60236
upperneck 6.82485 -3.03082 4.39959
head 2.81781 -1.49175 2.14091
rclavicle -1.70458e-014 -6.59965e-014
rhumerus -24.0363 27.4216 -86.2251
rradius 70.255
rwrist 6.29442
rhand -0.500637 -40.1162
rfingers 7.12502
rthumb 25.1108 -68.485
lclavicle -1.70458e-014 -6.59965e-014
lhumerus -22.7452 -6.90839 76.9882
lradius 33.2962
lwrist -11.4761
lhand -23.9411 24.1845
lfingers 7.12502
lthumb 2.53422 54.1492
rfemur -59.5601 -3.37425 16.8096
rtibia 75.5308
rfoot -10.0295 6.09917
rtoes -12.1875
lfemur -11.4282 16.687 -28.9623
ltibia 68.673
lfoot -38.8607 28.3057
ltoes -3.62681
178
root -1.54915 14.285 -27.2767 -10.5361 -7.89311 10.2048
lowerback 23.1818 2.89779 -14.3733
upperback 3.48693 -0.0763539 -2.45943
thorax -9.04734 0.366446 5.45608
lowerneck -2.4427 -2.52363 -4.75701
upperneck 6.94424 -3.45109 4.44744
head 2.84378 -1.70571 2.17208
rclavicle -6.16232e-015 1.31198e-014
rhumerus -25.6982 25.1962 -85.6805
rradius 71.3737
rwrist 6.31199
rhand -0.629883 -40.9018
rfingers 7.12502
rthumb 24.9869 -69.2878
lclavicle -6.16232e-015 1.31198e-014
lhumerus -22.0639 -6.85491 77.4279
lradius 32.4286
lwrist -11.6646
lhand -23.2647 24.8279
lfingers 7.12502
lthumb 3.18745 54.7839
rfemur -58.9045 -3.65462 15.2854
rtibia 70.0538
rfoot -4.5926 8.93264
rtoes -8.86129
lfemur -9.13622 15.6186 -28.2804
ltibia 67.8272
lfoot -39.1105 28.0891
ltoes -4.55089
